<svg width="29" height="29" viewBox="0 0 25 25" fill="none" xmlns="http://www.w3.org/2000/svg">
<path d="M12.5 2.29167C15.8333 2.29167 16.25 2.29167 17.6042 2.39583C21.0417 2.5 22.6042 4.16667 22.7083 7.5C22.8125 8.85417 22.8125 9.16667 22.8125 12.5C22.8125 15.8333 22.8125 16.25 22.7083 17.5C22.6042 20.8333 20.9375 22.5 17.6042 22.6042C16.25 22.7083 15.9375 22.7083 12.5 22.7083C9.16667 22.7083 8.75 22.7083 7.5 22.6042C4.0625 22.5 2.5 20.8333 2.39583 17.5C2.29167 16.1458 2.29167 15.8333 2.29167 12.5C2.29167 9.16667 2.29167 8.75 2.39583 7.5C2.5 4.16667 4.16667 2.5 7.5 2.39583C8.75 2.29167 9.16667 2.29167 12.5 2.29167ZM12.5 0C9.0625 0 8.64583 0 7.39583 0.104167C2.8125 0.3125 0.3125 2.8125 0.104167 7.39583C0 8.64583 0 9.0625 0 12.5C0 15.9375 0 16.3542 0.104167 17.6042C0.3125 22.1875 2.8125 24.6875 7.39583 24.8958C8.64583 25 9.0625 25 12.5 25C15.9375 25 16.3542 25 17.6042 24.8958C22.1875 24.6875 24.6875 22.1875 24.8958 17.6042C25 16.3542 25 15.9375 25 12.5C25 9.0625 25 8.64583 24.8958 7.39583C24.6875 2.8125 22.1875 0.3125 17.6042 0.104167C16.3542 0 15.9375 0 12.5 0ZM12.5 6.04167C8.95833 6.04167 6.04167 8.95833 6.04167 12.5C6.04167 16.0417 8.95833 18.9583 12.5 18.9583C16.0417 18.9583 18.9583 16.0417 18.9583 12.5C18.9583 8.95833 16.0417 6.04167 12.5 6.04167ZM12.5 16.6667C10.2083 16.6667 8.33333 14.7917 8.33333 12.5C8.33333 10.2083 10.2083 8.33333 12.5 8.33333C14.7917 8.33333 16.6667 10.2083 16.6667 12.5C16.6667 14.7917 14.7917 16.6667 12.5 16.6667ZM19.1667 4.375C18.3333 4.375 17.7083 5 17.7083 5.83333C17.7083 6.66667 18.3333 7.29167 19.1667 7.29167C20 7.29167 20.625 6.66667 20.625 5.83333C20.625 5 20 4.375 19.1667 4.375Z" fill="white"/>
</svg>
