<svg width="16" height="16" viewBox="0 0 16 16" fill="none" xmlns="http://www.w3.org/2000/svg">
<circle cx="7.78564" cy="7.86523" r="7.5" fill="#D9D9D9"/>
<path fill-rule="evenodd" clip-rule="evenodd" d="M6.35091 4.024C6.77745 4.00436 6.91345 4 8 4C9.08655 4 9.22255 4.00473 9.64873 4.024C10.0749 4.04327 10.3658 4.11127 10.6204 4.20982C10.8869 4.31055 11.1287 4.468 11.3287 4.67164C11.5324 4.87127 11.6895 5.11273 11.7898 5.37964C11.8887 5.63418 11.9564 5.92509 11.976 6.35055C11.9956 6.77782 12 6.91382 12 8C12 9.08655 11.9953 9.22255 11.976 9.64909C11.9567 10.0745 11.8887 10.3655 11.7898 10.62C11.6895 10.8869 11.5321 11.1288 11.3287 11.3287C11.1287 11.5324 10.8869 11.6895 10.6204 11.7898C10.3658 11.8887 10.0749 11.9564 9.64945 11.976C9.22255 11.9956 9.08655 12 8 12C6.91345 12 6.77745 11.9953 6.35091 11.976C5.92545 11.9567 5.63455 11.8887 5.38 11.7898C5.11306 11.6894 4.87121 11.5321 4.67127 11.3287C4.46777 11.129 4.3103 10.8872 4.20982 10.6204C4.11127 10.3658 4.04364 10.0749 4.024 9.64945C4.00436 9.22218 4 9.08618 4 8C4 6.91345 4.00473 6.77745 4.024 6.35127C4.04327 5.92509 4.11127 5.63418 4.20982 5.37964C4.31044 5.11276 4.46804 4.87102 4.67164 4.67127C4.87129 4.46782 5.1129 4.31034 5.37964 4.20982C5.63418 4.11127 5.92509 4.04364 6.35055 4.024H6.35091ZM9.61636 4.744C9.19455 4.72473 9.068 4.72073 8 4.72073C6.932 4.72073 6.80545 4.72473 6.38364 4.744C5.99345 4.76182 5.78182 4.82691 5.64073 4.88182C5.45418 4.95455 5.32073 5.04073 5.18073 5.18073C5.04802 5.30984 4.94588 5.46701 4.88182 5.64073C4.82691 5.78182 4.76182 5.99345 4.744 6.38364C4.72473 6.80545 4.72073 6.932 4.72073 8C4.72073 9.068 4.72473 9.19455 4.744 9.61636C4.76182 10.0065 4.82691 10.2182 4.88182 10.3593C4.94582 10.5327 5.048 10.6902 5.18073 10.8193C5.30982 10.952 5.46727 11.0542 5.64073 11.1182C5.78182 11.1731 5.99345 11.2382 6.38364 11.256C6.80545 11.2753 6.93164 11.2793 8 11.2793C9.06836 11.2793 9.19455 11.2753 9.61636 11.256C10.0065 11.2382 10.2182 11.1731 10.3593 11.1182C10.5458 11.0455 10.6793 10.9593 10.8193 10.8193C10.952 10.6902 11.0542 10.5327 11.1182 10.3593C11.1731 10.2182 11.2382 10.0065 11.256 9.61636C11.2753 9.19455 11.2793 9.068 11.2793 8C11.2793 6.932 11.2753 6.80545 11.256 6.38364C11.2382 5.99345 11.1731 5.78182 11.1182 5.64073C11.0455 5.45418 10.9593 5.32073 10.8193 5.18073C10.6902 5.04803 10.533 4.94589 10.3593 4.88182C10.2182 4.82691 10.0065 4.76182 9.61636 4.744ZM7.48909 9.23309C7.77442 9.35187 8.09214 9.3679 8.38797 9.27844C8.68381 9.18899 8.93942 8.99961 9.11113 8.74263C9.28285 8.48566 9.36002 8.17704 9.32947 7.86949C9.29892 7.56194 9.16255 7.27454 8.94364 7.05636C8.80409 6.9169 8.63535 6.81011 8.44958 6.74369C8.2638 6.67727 8.06561 6.65286 7.86927 6.67222C7.67293 6.69159 7.48333 6.75425 7.31411 6.85568C7.14489 6.95712 7.00027 7.09482 6.89066 7.25886C6.78104 7.42289 6.70916 7.6092 6.68019 7.80435C6.65122 7.9995 6.66587 8.19865 6.72311 8.38746C6.78034 8.57627 6.87872 8.75004 7.01117 8.89626C7.14362 9.04249 7.30685 9.15752 7.48909 9.23309ZM6.54618 6.54618C6.7371 6.35526 6.96375 6.20382 7.2132 6.1005C7.46265 5.99717 7.73 5.94399 8 5.94399C8.27 5.94399 8.53735 5.99717 8.7868 6.10049C9.03625 6.20382 9.2629 6.35526 9.45382 6.54618C9.64474 6.7371 9.79618 6.96375 9.89951 7.2132C10.0028 7.46265 10.056 7.73 10.056 8C10.056 8.27 10.0028 8.53735 9.89951 8.7868C9.79618 9.03625 9.64474 9.2629 9.45382 9.45382C9.06824 9.8394 8.54529 10.056 8 10.056C7.45471 10.056 6.93176 9.8394 6.54618 9.45382C6.16061 9.06824 5.94399 8.54529 5.94399 8C5.94399 7.45471 6.16061 6.93176 6.54618 6.54618ZM10.512 6.25018C10.5593 6.20555 10.5972 6.15188 10.6234 6.09235C10.6496 6.03282 10.6636 5.96864 10.6645 5.90361C10.6655 5.83858 10.6534 5.77402 10.6289 5.71375C10.6045 5.65348 10.5682 5.59873 10.5222 5.55274C10.4762 5.50675 10.4214 5.47046 10.3612 5.44601C10.3009 5.42156 10.2363 5.40945 10.1713 5.41039C10.1063 5.41134 10.0421 5.42533 9.98256 5.45153C9.92303 5.47772 9.86936 5.5156 9.82473 5.56291C9.73793 5.65492 9.69041 5.77714 9.69226 5.90361C9.6941 6.03009 9.74516 6.15087 9.8346 6.24031C9.92404 6.32975 10.0448 6.38081 10.1713 6.38265C10.2978 6.3845 10.42 6.33698 10.512 6.25018Z" fill="black"/>
</svg>
