<svg width="14" height="14" viewBox="0 0 14 14" fill="none" xmlns="http://www.w3.org/2000/svg">
<path d="M6.72167 1.28833C5.57135 1.28969 4.46853 1.74725 3.65514 2.56065C2.84174 3.37405 2.38417 4.47686 2.38282 5.62718C2.38144 6.56722 2.6885 7.48176 3.2569 8.23049C3.2569 8.23049 3.37523 8.3863 3.39456 8.40878L6.72167 12.3327L10.0504 8.40681C10.0677 8.3859 10.1864 8.23049 10.1864 8.23049L10.1868 8.22931C10.7549 7.4809 11.0619 6.56679 11.0605 5.62718C11.0592 4.47686 10.6016 3.37405 9.7882 2.56065C8.9748 1.74725 7.87199 1.28969 6.72167 1.28833ZM6.72167 7.20495C6.40962 7.20495 6.10457 7.11241 5.84511 6.93904C5.58565 6.76568 5.38342 6.51927 5.264 6.23097C5.14459 5.94267 5.11334 5.62543 5.17422 5.31938C5.2351 5.01332 5.38537 4.73219 5.60602 4.51153C5.82667 4.29088 6.10781 4.14061 6.41386 4.07973C6.71992 4.01886 7.03715 4.0501 7.32545 4.16952C7.61375 4.28893 7.86016 4.49116 8.03353 4.75062C8.2069 5.01009 8.29943 5.31513 8.29943 5.62718C8.29891 6.04547 8.13251 6.44648 7.83674 6.74225C7.54096 7.03803 7.13996 7.20442 6.72167 7.20495Z" fill="white"/>
</svg>
