<svg width="1920" height="836" viewBox="0 0 1920 836" fill="none" xmlns="http://www.w3.org/2000/svg">
<path opacity="0.0416667" d="M522.499 824.349L709.213 742.57L875.403 776.494L1038.98 697.853L1008.95 575.325L1170.05 579.382L1324.48 450.176L1086.82 361.043L1349.09 325.479L1548.35 167.204L1799.04 133.209L1913.63 9.40731" stroke="url(#paint0_linear_193_684)"/>
<path opacity="0.0833333" d="M500.43 825.809L689.927 745.1L854.939 779.967L1021.19 702.264L995.366 579.578L1156.3 584.551L1315.15 456.237L1080.57 365.76L1344.03 331.692L1548.69 174.567L1800.52 142.001L1919.33 18.8641" stroke="url(#paint1_linear_193_684)"/>
<path opacity="0.125" d="M478.275 827.158L670.518 747.535L834.32 783.338L1003.22 706.589L981.597 583.768L1142.35 589.657L1305.58 462.259L1074.12 370.456L1338.72 337.89L1548.73 181.945L1801.66 150.817L1924.68 28.3673" stroke="url(#paint2_linear_193_684)"/>
<path opacity="0.166667" d="M456.038 828.396L650.989 749.875L813.548 786.607L985.057 710.827L967.647 587.894L1128.18 594.697L1295.76 468.241L1067.46 375.129L1333.15 344.073L1548.49 189.338L1802.46 159.652L1929.66 37.9153" stroke="url(#paint3_linear_193_684)"/>
<path opacity="0.208333" d="M433.722 829.523L631.344 752.12L792.63 789.773L966.717 714.976L953.52 591.957L1113.81 599.673L1285.7 474.183L1060.61 379.781L1327.34 350.24L1547.96 196.746L1802.92 168.508L1934.28 47.507" stroke="url(#paint4_linear_193_684)"/>
<path opacity="0.25" d="M411.332 830.537L611.586 754.266L771.566 792.834L948.198 719.035L939.216 595.953L1099.22 604.581L1275.39 480.081L1053.57 384.407L1321.28 356.387L1547.13 204.164L1803.04 177.38L1938.53 57.1379" stroke="url(#paint5_linear_193_684)"/>
<path opacity="0.291667" d="M388.872 831.44L591.719 756.317L750.362 795.791L929.505 723.005L924.739 599.883L1084.43 609.421L1264.85 485.936L1046.32 389.009L1314.97 362.515L1546.02 211.592L1802.81 186.267L1942.41 66.8083" stroke="url(#paint6_linear_193_684)"/>
<path opacity="0.333333" d="M366.345 832.231L571.745 758.269L729.021 798.642L910.639 726.883L910.091 603.746L1069.44 614.191L1254.07 491.745L1038.89 393.584L1308.42 368.622L1544.61 219.029L1802.25 195.168L1945.92 76.5152" stroke="url(#paint7_linear_193_684)"/>
<path opacity="0.375" d="M343.754 832.907L551.667 760.121L707.544 801.386L891.603 730.667L895.272 607.539L1054.25 618.891L1243.06 497.508L1031.25 398.131L1301.61 374.706L1542.9 226.471L1801.34 204.079L1949.06 86.2555" stroke="url(#paint8_linear_193_684)"/>
<path opacity="0.416667" d="M321.105 833.472L531.491 761.877L685.94 804.024L872.402 734.36L880.289 611.265L1038.86 623.52L1231.81 503.223L1023.43 402.651L1294.56 380.766L1540.91 233.92L1800.08 213.001L1951.83 96.0294" stroke="url(#paint9_linear_193_684)"/>
<path opacity="0.458333" d="M298.4 833.921L511.218 763.531L664.208 806.553L853.038 737.957L865.14 614.919L1023.28 628.076L1220.33 508.889L1015.41 407.14L1287.27 386.801L1538.62 241.371L1798.49 221.929L1954.22 105.833" stroke="url(#paint10_linear_193_684)"/>
<path opacity="0.5" d="M275.644 834.259L490.852 765.086L642.354 808.975L833.516 741.461L849.831 618.503L1007.5 632.558L1208.61 514.505L1007.2 411.6L1279.73 392.81L1536.04 248.824L1796.55 230.863L1956.24 115.665" stroke="url(#paint11_linear_193_684)"/>
<path opacity="0.541667" d="M252.841 834.48L470.397 766.539L620.381 811.286L813.836 744.866L834.361 622.013L991.539 636.965L1196.67 520.067L998.807 416.026L1271.95 398.789L1533.17 256.276L1794.26 239.8L1957.89 125.521" stroke="url(#paint12_linear_193_684)"/>
<path opacity="0.583333" d="M229.993 834.587L449.856 767.891L598.292 813.487L794.004 748.175L818.734 625.451L975.384 641.296L1184.5 525.577L990.219 420.42L1263.93 404.739L1530 263.727L1791.63 248.738L1959.16 135.402" stroke="url(#paint13_linear_193_684)"/>
<path opacity="0.625" d="M207.107 834.581L429.232 769.143L576.093 815.579L774.022 751.387L802.954 628.816L959.046 645.551L1172.11 531.033L981.445 424.781L1255.66 410.659L1526.54 271.175L1788.66 257.677L1960.05 145.305" stroke="url(#paint14_linear_193_684)"/>
<path opacity="0.666667" d="M184.185 834.458L408.53 770.291L553.785 817.559L753.894 754.499L787.022 632.104L942.525 649.726L1159.49 536.432L972.483 429.105L1247.16 416.546L1522.79 278.617L1785.34 266.612L1960.57 155.227" stroke="url(#paint15_linear_193_684)"/>
<path opacity="0.708333" d="M161.231 834.221L387.752 771.337L531.375 819.427L733.624 757.512L770.94 635.318L925.825 653.823L1146.65 541.775L963.337 433.394L1238.42 422.399L1518.74 286.053L1781.68 275.543L1960.7 165.166" stroke="url(#paint16_linear_193_684)"/>
<path opacity="0.75" d="M138.249 833.869L366.902 772.28L508.863 821.182L713.213 760.425L754.711 638.455L908.947 657.84L1133.59 547.06L954.005 437.646L1229.43 428.218L1514.4 293.48L1777.68 284.468L1960.46 175.121" stroke="url(#paint17_linear_193_684)"/>
<path opacity="0.791667" d="M115.244 833.4L345.984 773.119L486.257 822.825L692.668 763.237L738.339 641.515L891.896 661.775L1120.31 552.285L944.492 441.859L1220.22 434L1509.77 300.897L1773.33 293.384L1959.84 185.088" stroke="url(#paint18_linear_193_684)"/>
<path opacity="0.833333" d="M92.2196 832.816L325.002 773.854L463.558 824.353L671.99 765.946L721.826 644.496L874.674 665.628L1106.81 557.448L934.797 446.033L1210.76 439.744L1504.85 308.302L1768.64 302.29L1958.84 195.066" stroke="url(#paint19_linear_193_684)"/>
<path opacity="0.875" d="M69.1784 832.118L303.958 774.486L440.77 825.769L651.183 768.553L705.174 647.399L857.283 669.399L1093.1 562.551L924.922 450.167L1201.08 445.449L1499.64 315.694L1763.61 311.184L1957.46 205.053" stroke="url(#paint20_linear_193_684)"/>
<path opacity="0.916667" d="M46.1259 831.302L282.856 775.012L417.899 827.069L630.251 771.056L688.386 650.221L839.727 673.085L1079.19 567.59L914.868 454.26L1191.16 451.114L1494.13 323.07L1758.23 320.063L1955.71 215.046" stroke="url(#paint21_linear_193_684)"/>
<path opacity="0.958333" d="M23.0644 830.372L261.7 775.434L394.946 828.255L609.196 773.456L671.465 652.964L822.008 676.687L1065.06 572.564L904.636 458.31L1181.01 456.737L1488.34 330.431L1752.52 328.927L1953.57 225.044" stroke="url(#paint22_linear_193_684)"/>
<path d="M0 829.325L240.494 775.751L371.918 829.325L588.024 775.751L654.413 655.624L804.129 680.202L1050.72 577.473L894.23 462.317H1170.63L1482.25 337.772H1746.46L1951.05 235.043" stroke="url(#paint23_linear_193_684)"/>
<defs>
<linearGradient id="paint0_linear_193_684" x1="1913.41" y1="9.14523" x2="1694.57" y2="954.802" gradientUnits="userSpaceOnUse">
<stop stop-color="#0F52FF"/>
<stop offset="1" stop-color="#FAB400"/>
</linearGradient>
<linearGradient id="paint1_linear_193_684" x1="1919.13" y1="18.6008" x2="1692.05" y2="968.688" gradientUnits="userSpaceOnUse">
<stop stop-color="#0F52FF"/>
<stop offset="1" stop-color="#FAB400"/>
</linearGradient>
<linearGradient id="paint2_linear_193_684" x1="1924.48" y1="28.1029" x2="1688.95" y2="982.744" gradientUnits="userSpaceOnUse">
<stop stop-color="#0F52FF"/>
<stop offset="1" stop-color="#FAB400"/>
</linearGradient>
<linearGradient id="paint3_linear_193_684" x1="1929.47" y1="37.6498" x2="1685.27" y2="996.966" gradientUnits="userSpaceOnUse">
<stop stop-color="#0F52FF"/>
<stop offset="1" stop-color="#FAB400"/>
</linearGradient>
<linearGradient id="paint4_linear_193_684" x1="1934.1" y1="47.2404" x2="1680.98" y2="1011.35" gradientUnits="userSpaceOnUse">
<stop stop-color="#0F52FF"/>
<stop offset="1" stop-color="#FAB400"/>
</linearGradient>
<linearGradient id="paint5_linear_193_684" x1="1938.36" y1="56.8704" x2="1676.07" y2="1025.9" gradientUnits="userSpaceOnUse">
<stop stop-color="#0F52FF"/>
<stop offset="1" stop-color="#FAB400"/>
</linearGradient>
<linearGradient id="paint6_linear_193_684" x1="1942.25" y1="66.5399" x2="1670.53" y2="1040.6" gradientUnits="userSpaceOnUse">
<stop stop-color="#0F52FF"/>
<stop offset="1" stop-color="#FAB400"/>
</linearGradient>
<linearGradient id="paint7_linear_193_684" x1="1945.77" y1="76.2458" x2="1664.35" y2="1055.46" gradientUnits="userSpaceOnUse">
<stop stop-color="#0F52FF"/>
<stop offset="1" stop-color="#FAB400"/>
</linearGradient>
<linearGradient id="paint8_linear_193_684" x1="1948.92" y1="85.9853" x2="1657.51" y2="1070.47" gradientUnits="userSpaceOnUse">
<stop stop-color="#0F52FF"/>
<stop offset="1" stop-color="#FAB400"/>
</linearGradient>
<linearGradient id="paint9_linear_193_684" x1="1951.69" y1="95.7585" x2="1650.01" y2="1085.62" gradientUnits="userSpaceOnUse">
<stop stop-color="#0F52FF"/>
<stop offset="1" stop-color="#FAB400"/>
</linearGradient>
<linearGradient id="paint10_linear_193_684" x1="1954.1" y1="105.561" x2="1641.81" y2="1100.91" gradientUnits="userSpaceOnUse">
<stop stop-color="#0F52FF"/>
<stop offset="1" stop-color="#FAB400"/>
</linearGradient>
<linearGradient id="paint11_linear_193_684" x1="1956.13" y1="115.392" x2="1632.92" y2="1116.34" gradientUnits="userSpaceOnUse">
<stop stop-color="#0F52FF"/>
<stop offset="1" stop-color="#FAB400"/>
</linearGradient>
<linearGradient id="paint12_linear_193_684" x1="1957.78" y1="125.248" x2="1623.3" y2="1131.89" gradientUnits="userSpaceOnUse">
<stop stop-color="#0F52FF"/>
<stop offset="1" stop-color="#FAB400"/>
</linearGradient>
<linearGradient id="paint13_linear_193_684" x1="1959.06" y1="135.128" x2="1612.95" y2="1147.57" gradientUnits="userSpaceOnUse">
<stop stop-color="#0F52FF"/>
<stop offset="1" stop-color="#FAB400"/>
</linearGradient>
<linearGradient id="paint14_linear_193_684" x1="1959.96" y1="145.031" x2="1601.85" y2="1163.37" gradientUnits="userSpaceOnUse">
<stop stop-color="#0F52FF"/>
<stop offset="1" stop-color="#FAB400"/>
</linearGradient>
<linearGradient id="paint15_linear_193_684" x1="1960.49" y1="154.952" x2="1589.98" y2="1179.27" gradientUnits="userSpaceOnUse">
<stop stop-color="#0F52FF"/>
<stop offset="1" stop-color="#FAB400"/>
</linearGradient>
<linearGradient id="paint16_linear_193_684" x1="1960.64" y1="164.891" x2="1577.31" y2="1195.27" gradientUnits="userSpaceOnUse">
<stop stop-color="#0F52FF"/>
<stop offset="1" stop-color="#FAB400"/>
</linearGradient>
<linearGradient id="paint17_linear_193_684" x1="1960.41" y1="174.845" x2="1563.84" y2="1211.37" gradientUnits="userSpaceOnUse">
<stop stop-color="#0F52FF"/>
<stop offset="1" stop-color="#FAB400"/>
</linearGradient>
<linearGradient id="paint18_linear_193_684" x1="1959.8" y1="184.812" x2="1549.55" y2="1227.55" gradientUnits="userSpaceOnUse">
<stop stop-color="#0F52FF"/>
<stop offset="1" stop-color="#FAB400"/>
</linearGradient>
<linearGradient id="paint19_linear_193_684" x1="1958.81" y1="194.79" x2="1534.4" y2="1243.79" gradientUnits="userSpaceOnUse">
<stop stop-color="#0F52FF"/>
<stop offset="1" stop-color="#FAB400"/>
</linearGradient>
<linearGradient id="paint20_linear_193_684" x1="1957.44" y1="204.777" x2="1518.38" y2="1260.1" gradientUnits="userSpaceOnUse">
<stop stop-color="#0F52FF"/>
<stop offset="1" stop-color="#FAB400"/>
</linearGradient>
<linearGradient id="paint21_linear_193_684" x1="1955.69" y1="214.77" x2="1501.47" y2="1276.45" gradientUnits="userSpaceOnUse">
<stop stop-color="#0F52FF"/>
<stop offset="1" stop-color="#FAB400"/>
</linearGradient>
<linearGradient id="paint22_linear_193_684" x1="1953.56" y1="224.767" x2="1483.64" y2="1292.83" gradientUnits="userSpaceOnUse">
<stop stop-color="#0F52FF"/>
<stop offset="1" stop-color="#FAB400"/>
</linearGradient>
<linearGradient id="paint23_linear_193_684" x1="1951.05" y1="234.767" x2="1464.88" y2="1309.23" gradientUnits="userSpaceOnUse">
<stop stop-color="#0F52FF"/>
<stop offset="1" stop-color="#FAB400"/>
</linearGradient>
</defs>
</svg>
