<svg width="111" height="92" viewBox="0 0 111 92" fill="none" xmlns="http://www.w3.org/2000/svg">
<path d="M8.01412 47.689C8.01412 47.689 13.1214 33.4729 23.7876 33.4729C34.4538 33.4729 26.4548 45.0907 38.4548 45.0907C50.4548 45.0907 50.4547 30.4155 57.1214 29.8041C63.7881 29.1926 65.1214 45.0907 75.7881 45.0907C86.4548 45.0907 78.4547 33.4729 85.1214 33.4729C91.7881 33.4729 102.455 43.2563 102.455 43.2563" stroke="#FEA31B" stroke-width="14.6752" stroke-linecap="round" stroke-linejoin="round"/>
<path d="M2.68233 50.5889C2.68233 50.5889 7.78963 36.3728 18.4558 36.3728C29.122 36.3728 21.123 47.9906 33.123 47.9906C45.123 47.9906 45.123 33.3154 51.7896 32.704C58.4563 32.0925 59.7896 47.9906 70.4563 47.9906C81.123 47.9906 73.123 36.3728 79.7896 36.3728C86.4563 36.3728 97.123 46.1562 97.123 46.1562" stroke="black" stroke-width="1.22293" stroke-linecap="round" stroke-linejoin="round"/>
</svg>
