<svg width="14" height="14" viewBox="0 0 14 14" fill="none" xmlns="http://www.w3.org/2000/svg">
<path d="M10.9279 6.44773H11.9798C11.9798 3.74976 9.94287 1.71497 7.24121 1.71497V2.76681C9.3775 2.76681 10.9279 4.3146 10.9279 6.44773Z" fill="white"/>
<path d="M7.24716 4.87053C8.35317 4.87053 8.82492 5.34228 8.82492 6.44829H9.87676C9.87676 4.7522 8.94325 3.81869 7.24716 3.81869V4.87053ZM9.04686 7.73312C8.9458 7.64127 8.813 7.59228 8.67651 7.5965C8.54001 7.60072 8.41049 7.65782 8.3153 7.75573L7.05677 9.05003C6.75384 8.99217 6.14482 8.80232 5.51793 8.177C4.89103 7.54957 4.70117 6.93898 4.6449 6.63815L5.93814 5.37909C6.03618 5.28397 6.09336 5.15443 6.09758 5.0179C6.1018 4.88136 6.05273 4.74854 5.96075 4.64754L4.01747 2.51072C3.92546 2.4094 3.79757 2.34795 3.66098 2.33941C3.52438 2.33086 3.38984 2.3759 3.28592 2.46496L2.14467 3.4437C2.05374 3.53496 1.99947 3.65641 1.99215 3.78503C1.98426 3.91651 1.83385 7.03101 4.24888 9.4471C6.35572 11.5534 8.99479 11.7075 9.72162 11.7075C9.82785 11.7075 9.89307 11.7044 9.91042 11.7033C10.039 11.6961 10.1604 11.6416 10.2512 11.5503L11.2294 10.4085C11.3186 10.3046 11.3637 10.1701 11.3552 10.0335C11.3468 9.89693 11.2854 9.76901 11.1842 9.67692L9.04686 7.73312Z" fill="white"/>
</svg>
