<svg width="29" height="29" viewBox="0 0 29 29" fill="none" xmlns="http://www.w3.org/2000/svg">
<g clip-path="url(#clip0_282_96)">
<path d="M14.4231 0C10.5987 0 6.92758 1.52051 4.22551 4.22438C1.52065 6.92933 0.000749256 10.5978 0 14.4231C0 18.2468 1.52118 21.9179 4.22551 24.6218C6.92758 27.3256 10.5987 28.8462 14.4231 28.8462C18.2474 28.8462 21.9186 27.3256 24.6206 24.6218C27.325 21.9179 28.8462 18.2468 28.8462 14.4231C28.8462 10.5994 27.325 6.92826 24.6206 4.22438C21.9186 1.52051 18.2474 0 14.4231 0Z" fill="url(#paint0_linear_282_96)"/>
<path d="M6.52848 14.2709C10.7337 12.4391 13.5372 11.2314 14.9389 10.648C18.9459 8.98187 19.7774 8.69251 20.3205 8.6827C20.44 8.68079 20.7059 8.71031 20.8794 8.8506C21.0237 8.96891 21.0642 9.12892 21.0845 9.24126C21.1025 9.35349 21.1273 9.60927 21.1071 9.80894C20.8907 12.0896 19.951 17.624 19.4732 20.1785C19.2726 21.2593 18.8737 21.6217 18.4884 21.657C17.65 21.7341 17.0145 21.1036 16.2032 20.5719C14.9344 19.7397 14.2178 19.2218 12.9851 18.4098C11.5608 17.4714 12.4848 16.9556 13.2961 16.1127C13.5079 15.8921 17.1993 12.5354 17.2692 12.2309C17.2782 12.1928 17.2872 12.0508 17.2016 11.976C17.1182 11.901 16.9942 11.9267 16.9041 11.9469C16.7756 11.9758 14.7496 13.3162 10.8193 15.968C10.2447 16.3633 9.72409 16.556 9.25534 16.5459C8.74152 16.5348 7.74993 16.2547 7.01301 16.0154C6.11156 15.7217 5.39266 15.5665 5.45576 15.0677C5.48731 14.8081 5.84564 14.5424 6.52848 14.2709Z" fill="white"/>
</g>
<defs>
<linearGradient id="paint0_linear_282_96" x1="1442.31" y1="0" x2="1442.31" y2="2884.62" gradientUnits="userSpaceOnUse">
<stop stop-color="#4B4B4B"/>
<stop offset="1" stop-color="#229ED9"/>
</linearGradient>
<clipPath id="clip0_282_96">
<rect width="28.8462" height="28.8462" fill="white"/>
</clipPath>
</defs>
</svg>
