<svg width="21" height="16" viewBox="0 0 21 16" fill="none" xmlns="http://www.w3.org/2000/svg">
<g clip-path="url(#clip0_307_215)">
<mask id="mask0_307_215" style="mask-type:alpha" maskUnits="userSpaceOnUse" x="0" y="0" width="21" height="16">
<path d="M19 0.5H2C0.89543 0.5 0 1.39543 0 2.5V13.5C0 14.6046 0.89543 15.5 2 15.5H19C20.1046 15.5 21 14.6046 21 13.5V2.5C21 1.39543 20.1046 0.5 19 0.5Z" fill="white"/>
</mask>
<g mask="url(#mask0_307_215)">
<path d="M19 0.5H2C0.89543 0.5 0 1.39543 0 2.5V13.5C0 14.6046 0.89543 15.5 2 15.5H19C20.1046 15.5 21 14.6046 21 13.5V2.5C21 1.39543 20.1046 0.5 19 0.5Z" fill="#D4112A"/>
<path fill-rule="evenodd" clip-rule="evenodd" d="M0 11.5H21V15.5H0V11.5Z" fill="#20BD42"/>
<path fill-rule="evenodd" clip-rule="evenodd" d="M0 0.5H21V4.5H0V0.5Z" fill="#02A3BD"/>
<path fill-rule="evenodd" clip-rule="evenodd" d="M0 5.5H21V10.5H0V5.5ZM5 4.415C4.844 4.47 4.675 4.5 4.5 4.5C3.672 4.5 3 3.828 3 3C3 2.172 3.672 1.5 4.5 1.5C4.675 1.5 4.844 1.53 5 1.585C4.417 1.791 4 2.347 4 3C4 3.653 4.417 4.21 5 4.415Z" fill="white"/>
<path fill-rule="evenodd" clip-rule="evenodd" d="M6 2.5H7V3.5H6V2.5ZM7 1.5H8V2.5H7V1.5ZM8 2.5H9V3.5H8V2.5ZM9 1.5H10V2.5H9V1.5ZM10 2.5H11V3.5H10V2.5ZM9 3.5H10V4.5H9V3.5ZM7 3.5H8V4.5H7V3.5Z" fill="#78CDDB"/>
<path d="M19 1H2C1.17157 1 0.5 1.67157 0.5 2.5V13.5C0.5 14.3284 1.17157 15 2 15H19C19.8284 15 20.5 14.3284 20.5 13.5V2.5C20.5 1.67157 19.8284 1 19 1Z" stroke="black" stroke-opacity="0.1"/>
</g>
</g>
<defs>
<clipPath id="clip0_307_215">
<rect width="21" height="15" fill="white" transform="translate(0 0.5)"/>
</clipPath>
</defs>
</svg>
