<svg width="38" height="30" viewBox="0 0 38 30" fill="none" xmlns="http://www.w3.org/2000/svg">
<path d="M17.9333 2.18667L15.5256 0.0078125C6.46152 5.61058 2.21272 11.9915 1.07971 19.1506C0.229952 25.0646 2.35435 29.7336 7.73616 29.7336C11.5601 29.7336 15.2424 26.9322 16.0921 22.2633C16.8003 16.8161 13.9677 13.5478 10.4271 12.7697C11.8433 7.47818 17.7916 2.18667 17.9333 2.18667ZM30.1132 12.4584C31.6711 7.32255 37.3361 2.18667 37.4777 2.18667L35.0701 0.0078125C26.006 5.61058 21.7572 11.9915 20.6242 19.1506C19.7744 25.0646 21.8988 29.7336 27.2806 29.7336C31.1045 29.7336 34.7868 26.9322 35.495 22.2633C36.3447 16.8161 33.6538 13.2366 30.1132 12.4584Z" fill="url(#paint0_radial_414_980)"/>
<defs>
<radialGradient id="paint0_radial_414_980" cx="0" cy="0" r="1" gradientUnits="userSpaceOnUse" gradientTransform="translate(11.3497 5.10367) rotate(63.015) scale(27.6392 31.6333)">
<stop stop-color="#FFA800"/>
<stop offset="1" stop-color="#FF4D00"/>
</radialGradient>
</defs>
</svg>
